<mxfile host="65bd71144e">
    <diagram id="7kIq0Nq6xzDO8oMIwnh2" name="Page-1">
        <mxGraphModel dx="1546" dy="499" grid="1" gridSize="10" guides="1" tooltips="1" connect="1" arrows="1" fold="1" page="0" pageScale="1" pageWidth="850" pageHeight="1100" background="#ffffff" math="0" shadow="0">
            <root>
                <mxCell id="0"/>
                <mxCell id="1" parent="0"/>
                <mxCell id="2" value="&#10;&lt;div style=&quot;color: rgb(0, 0, 0); background-color: rgb(255, 255, 255); font-family: consolas, 楷体, Consolas, &amp;quot;Courier New&amp;quot;, monospace; font-weight: normal; font-size: 18px; line-height: 24px;&quot;&gt;&lt;div&gt;&lt;span style=&quot;color: #008000;&quot;&gt;// a.c&lt;/span&gt;&lt;/div&gt;&lt;div&gt;&lt;span style=&quot;color: #0000ff;&quot;&gt;extern&lt;/span&gt;&lt;span style=&quot;color: #000000;&quot;&gt; &lt;/span&gt;&lt;span style=&quot;color: #0000ff;&quot;&gt;void&lt;/span&gt;&lt;span style=&quot;color: #000000;&quot;&gt; print_in_b(&lt;/span&gt;&lt;span style=&quot;color: #0000ff;&quot;&gt;int&lt;/span&gt;&lt;span style=&quot;color: #000000;&quot;&gt;);&lt;/span&gt;&lt;/div&gt;&lt;div&gt;&lt;span style=&quot;color: #0000ff;&quot;&gt;extern&lt;/span&gt;&lt;span style=&quot;color: #000000;&quot;&gt; &lt;/span&gt;&lt;span style=&quot;color: #0000ff;&quot;&gt;int&lt;/span&gt;&lt;span style=&quot;color: #000000;&quot;&gt; get_var_in_c();&lt;/span&gt;&lt;/div&gt;&lt;br&gt;&lt;div&gt;&lt;span style=&quot;color: #0000ff;&quot;&gt;int&lt;/span&gt;&lt;span style=&quot;color: #000000;&quot;&gt; main() {&lt;/span&gt;&lt;/div&gt;&lt;div&gt;&lt;span style=&quot;color: #000000;&quot;&gt;&amp;nbsp; &amp;nbsp; &lt;/span&gt;&lt;span style=&quot;color: #0000ff;&quot;&gt;int&lt;/span&gt;&lt;span style=&quot;color: #000000;&quot;&gt; a = get_var_in_c();&lt;/span&gt;&lt;/div&gt;&lt;div&gt;&lt;span style=&quot;color: #000000;&quot;&gt;&amp;nbsp; &amp;nbsp; print_in_b(a);&lt;/span&gt;&lt;/div&gt;&lt;div&gt;&lt;span style=&quot;color: #000000;&quot;&gt;&amp;nbsp; &amp;nbsp; &lt;/span&gt;&lt;span style=&quot;color: #0000ff;&quot;&gt;return&lt;/span&gt;&lt;span style=&quot;color: #000000;&quot;&gt; &lt;/span&gt;&lt;span style=&quot;color: #098658;&quot;&gt;0&lt;/span&gt;&lt;span style=&quot;color: #000000;&quot;&gt;;&lt;/span&gt;&lt;/div&gt;&lt;div&gt;&lt;span style=&quot;color: #000000;&quot;&gt;}&lt;/span&gt;&lt;/div&gt;&lt;/div&gt;&#10;&#10;" style="rounded=0;whiteSpace=wrap;html=1;align=left;" parent="1" vertex="1">
                    <mxGeometry x="-440" y="200" width="320" height="280" as="geometry"/>
                </mxCell>
                <mxCell id="3" value="&lt;div style=&quot;font-family: consolas, 楷体, Consolas, &amp;quot;Courier New&amp;quot;, monospace; font-size: 18px; line-height: 24px;&quot;&gt;&lt;div&gt;&lt;span style=&quot;color: #008000;&quot;&gt;// b.c&lt;/span&gt;&lt;/div&gt;&lt;div&gt;&lt;span style=&quot;color: #0000ff;&quot;&gt;extern&lt;/span&gt; &lt;span style=&quot;color: #0000ff;&quot;&gt;int&lt;/span&gt; var_in_c;&lt;/div&gt;&lt;div&gt;&lt;span style=&quot;color: #0000ff;&quot;&gt;extern&lt;/span&gt; &lt;span style=&quot;color: #0000ff;&quot;&gt;void&lt;/span&gt; print_in_c(&lt;span style=&quot;color: #0000ff;&quot;&gt;int&lt;/span&gt;);&lt;/div&gt;&lt;br&gt;&lt;div&gt;&lt;span style=&quot;color: #0000ff;&quot;&gt;void&lt;/span&gt; print_in_b(&lt;span style=&quot;color: #0000ff;&quot;&gt;int&lt;/span&gt; &lt;span style=&quot;color: #808080;&quot;&gt;val&lt;/span&gt;) {&lt;/div&gt;&lt;div&gt;&amp;nbsp; &amp;nbsp; print_in_c(val);&lt;/div&gt;&lt;div&gt;}&lt;/div&gt;&lt;br&gt;&lt;div&gt;&lt;span style=&quot;color: #0000ff;&quot;&gt;int&lt;/span&gt; get_var_in_c() {&lt;/div&gt;&lt;div&gt;&amp;nbsp; &amp;nbsp; &lt;span style=&quot;color: #0000ff;&quot;&gt;return&lt;/span&gt; var_in_c;&lt;/div&gt;&lt;div&gt;}&lt;/div&gt;&lt;/div&gt;" style="rounded=0;whiteSpace=wrap;html=1;align=left;" parent="1" vertex="1">
                    <mxGeometry y="200" width="320" height="280" as="geometry"/>
                </mxCell>
                <mxCell id="5" value="&lt;div style=&quot;background-color: rgb(255, 255, 255); font-family: consolas, 楷体, Consolas, &amp;quot;Courier New&amp;quot;, monospace; line-height: 24px;&quot;&gt;&lt;div style=&quot;font-size: 18px; line-height: 24px;&quot;&gt;&lt;div style=&quot;line-height: 24px;&quot;&gt;&lt;div&gt;&lt;span style=&quot;color: #008000;&quot;&gt;// c.c&lt;/span&gt;&lt;/div&gt;&lt;div&gt;&lt;span style=&quot;color: #808080;&quot;&gt;#include&lt;/span&gt;&lt;span style=&quot;color: #a31515;&quot;&gt;&amp;lt;stdio.h&amp;gt;&lt;/span&gt;&lt;/div&gt;&lt;div&gt;&lt;span style=&quot;color: #0000ff;&quot;&gt;int&lt;/span&gt; var_in_c = &lt;span style=&quot;color: #098658;&quot;&gt;1&lt;/span&gt;;&lt;/div&gt;&lt;br&gt;&lt;div&gt;&lt;span style=&quot;color: #0000ff;&quot;&gt;void&lt;/span&gt; print_in_c (&lt;span style=&quot;color: #0000ff;&quot;&gt;int&lt;/span&gt; &lt;span style=&quot;color: #808080;&quot;&gt;val&lt;/span&gt;) {&lt;/div&gt;&lt;div&gt;&amp;nbsp; &amp;nbsp; printf(&lt;span style=&quot;color: #a31515;&quot;&gt;&quot;%d\n&quot;&lt;/span&gt;, val);&lt;/div&gt;&lt;div&gt;}&lt;/div&gt;&lt;/div&gt;&lt;/div&gt;&lt;/div&gt;" style="rounded=0;whiteSpace=wrap;html=1;align=left;" parent="1" vertex="1">
                    <mxGeometry x="400" y="200" width="280" height="280" as="geometry"/>
                </mxCell>
                <mxCell id="6" value="" style="endArrow=classic;html=1;fontSize=12;exitX=1;exitY=0.25;exitDx=0;exitDy=0;entryX=0;entryY=0.25;entryDx=0;entryDy=0;" parent="1" source="2" target="3" edge="1">
                    <mxGeometry width="50" height="50" relative="1" as="geometry">
                        <mxPoint x="220" y="270" as="sourcePoint"/>
                        <mxPoint x="270" y="220" as="targetPoint"/>
                    </mxGeometry>
                </mxCell>
                <mxCell id="7" value="" style="endArrow=classic;html=1;fontSize=12;exitX=1;exitY=0.25;exitDx=0;exitDy=0;entryX=0;entryY=0.25;entryDx=0;entryDy=0;" parent="1" source="3" target="5" edge="1">
                    <mxGeometry width="50" height="50" relative="1" as="geometry">
                        <mxPoint x="-110" y="280" as="sourcePoint"/>
                        <mxPoint x="10" y="280" as="targetPoint"/>
                    </mxGeometry>
                </mxCell>
            </root>
        </mxGraphModel>
    </diagram>
    <diagram id="L5Du-DrTfNeLQLRw00Ox" name="single">
        <mxGraphModel dx="3465" dy="1248" grid="1" gridSize="10" guides="1" tooltips="1" connect="1" arrows="1" fold="1" page="0" pageScale="1" pageWidth="850" pageHeight="1100" math="0" shadow="0">
            <root>
                <mxCell id="0"/>
                <mxCell id="1" parent="0"/>
                <mxCell id="UxEc0G9LJvKMVo84v686-3" value="&lt;div style=&quot;background-color: rgb(255, 255, 255); font-family: consolas, 楷体, Consolas, &amp;quot;Courier New&amp;quot;, monospace; font-weight: normal; font-size: 18px; line-height: 24px;&quot;&gt;&lt;div style=&quot;text-align: center; color: rgb(0, 0, 0);&quot;&gt;&lt;span style=&quot;font-family: Helvetica;&quot;&gt;objdump -d single.out&lt;/span&gt;&lt;span style=&quot;color: #000000;&quot;&gt;&lt;br&gt;&lt;/span&gt;&lt;/div&gt;&lt;div style=&quot;color: rgb(0, 0, 0);&quot;&gt;&lt;span style=&quot;color: #000000;&quot;&gt;&amp;lt;main&amp;gt;:&lt;/span&gt;&lt;/div&gt;&lt;div style=&quot;color: rgb(0, 0, 0);&quot;&gt;&lt;span style=&quot;color: #000000;&quot;&gt;endbr64&lt;/span&gt;&lt;/div&gt;&lt;div style=&quot;color: rgb(0, 0, 0);&quot;&gt;&lt;span style=&quot;color: #000000;&quot;&gt;push &amp;nbsp; %rbp&lt;/span&gt;&lt;/div&gt;&lt;div style=&quot;color: rgb(0, 0, 0);&quot;&gt;&lt;span style=&quot;color: #000000;&quot;&gt;mov &amp;nbsp; &amp;nbsp;%rsp,%rbp&lt;/span&gt;&lt;/div&gt;&lt;div style=&quot;color: rgb(0, 0, 0);&quot;&gt;&lt;span style=&quot;color: #000000;&quot;&gt;mov &amp;nbsp; &amp;nbsp;$&lt;/span&gt;&lt;span style=&quot;color: #098658;&quot;&gt;0x2&lt;/span&gt;&lt;span style=&quot;color: #000000;&quot;&gt;,%esi&lt;/span&gt;&lt;/div&gt;&lt;div style=&quot;color: rgb(0, 0, 0);&quot;&gt;&lt;span style=&quot;color: #000000;&quot;&gt;mov &amp;nbsp; &amp;nbsp;$&lt;/span&gt;&lt;span style=&quot;color: #098658;&quot;&gt;0x1&lt;/span&gt;&lt;span style=&quot;color: #000000;&quot;&gt;,%edi&lt;/span&gt;&lt;/div&gt;&lt;div style=&quot;&quot;&gt;&lt;font color=&quot;#ff0000&quot;&gt;call &amp;nbsp; 114d &amp;lt;add&amp;gt;&lt;/font&gt;&lt;/div&gt;&lt;div style=&quot;color: rgb(0, 0, 0);&quot;&gt;&lt;span style=&quot;color: #000000;&quot;&gt;mov &amp;nbsp; &amp;nbsp;%eax,&lt;/span&gt;&lt;span style=&quot;color: #098658;&quot;&gt;0x2ece&lt;/span&gt;&lt;span style=&quot;color: #000000;&quot;&gt;(%rip) &amp;nbsp; &amp;nbsp; &amp;nbsp; &amp;nbsp;&lt;/span&gt;&lt;span style=&quot;color: #008000;&quot;&gt;# 4014 &amp;lt;x&amp;gt;&lt;/span&gt;&lt;/div&gt;&lt;div style=&quot;color: rgb(0, 0, 0);&quot;&gt;&lt;span style=&quot;color: #000000;&quot;&gt;mov &amp;nbsp; &amp;nbsp;$&lt;/span&gt;&lt;span style=&quot;color: #098658;&quot;&gt;0x0&lt;/span&gt;&lt;span style=&quot;color: #000000;&quot;&gt;,%eax&lt;/span&gt;&lt;/div&gt;&lt;div style=&quot;color: rgb(0, 0, 0);&quot;&gt;&lt;span style=&quot;color: #000000;&quot;&gt;pop &amp;nbsp; &amp;nbsp;%rbp&lt;/span&gt;&lt;/div&gt;&lt;div style=&quot;color: rgb(0, 0, 0);&quot;&gt;&lt;span style=&quot;color: #000000;&quot;&gt;ret&lt;/span&gt;&lt;/div&gt;&lt;br&gt;&lt;div style=&quot;color: rgb(0, 0, 0);&quot;&gt;&lt;span style=&quot;color: #000000;&quot;&gt;&amp;lt;add&amp;gt;:&lt;/span&gt;&lt;/div&gt;&lt;div style=&quot;color: rgb(0, 0, 0);&quot;&gt;&lt;span style=&quot;color: #000000;&quot;&gt;endbr64&lt;/span&gt;&lt;/div&gt;&lt;div style=&quot;color: rgb(0, 0, 0);&quot;&gt;&lt;span style=&quot;color: #000000;&quot;&gt;push &amp;nbsp; %rbp&lt;/span&gt;&lt;/div&gt;&lt;div style=&quot;color: rgb(0, 0, 0);&quot;&gt;&lt;span style=&quot;color: #000000;&quot;&gt;mov &amp;nbsp; &amp;nbsp;%rsp,%rbp&lt;/span&gt;&lt;/div&gt;&lt;div style=&quot;color: rgb(0, 0, 0);&quot;&gt;&lt;span style=&quot;color: #000000;&quot;&gt;mov &amp;nbsp; &amp;nbsp;%edi,&lt;/span&gt;&lt;span style=&quot;color: #098658;&quot;&gt;-0x4&lt;/span&gt;&lt;span style=&quot;color: #000000;&quot;&gt;(%rbp)&lt;/span&gt;&lt;/div&gt;&lt;div style=&quot;color: rgb(0, 0, 0);&quot;&gt;&lt;span style=&quot;color: #000000;&quot;&gt;mov &amp;nbsp; &amp;nbsp;%esi,&lt;/span&gt;&lt;span style=&quot;color: #098658;&quot;&gt;-0x8&lt;/span&gt;&lt;span style=&quot;color: #000000;&quot;&gt;(%rbp)&lt;/span&gt;&lt;/div&gt;&lt;div style=&quot;color: rgb(0, 0, 0);&quot;&gt;&lt;span style=&quot;color: #000000;&quot;&gt;mov &amp;nbsp; &amp;nbsp;&lt;/span&gt;&lt;span style=&quot;color: #098658;&quot;&gt;-0x4&lt;/span&gt;&lt;span style=&quot;color: #000000;&quot;&gt;(%rbp),%edx&lt;/span&gt;&lt;/div&gt;&lt;div style=&quot;color: rgb(0, 0, 0);&quot;&gt;&lt;span style=&quot;color: #000000;&quot;&gt;mov &amp;nbsp; &amp;nbsp;&lt;/span&gt;&lt;span style=&quot;color: #098658;&quot;&gt;-0x8&lt;/span&gt;&lt;span style=&quot;color: #000000;&quot;&gt;(%rbp),%eax&lt;/span&gt;&lt;/div&gt;&lt;div style=&quot;color: rgb(0, 0, 0);&quot;&gt;&lt;span style=&quot;color: #000000;&quot;&gt;add &amp;nbsp; &amp;nbsp;%edx,%eax&lt;/span&gt;&lt;/div&gt;&lt;div style=&quot;color: rgb(0, 0, 0);&quot;&gt;&lt;span style=&quot;color: #000000;&quot;&gt;pop &amp;nbsp; &amp;nbsp;%rbp&lt;/span&gt;&lt;/div&gt;&lt;div style=&quot;color: rgb(0, 0, 0);&quot;&gt;&lt;span style=&quot;color: #000000;&quot;&gt;ret&lt;/span&gt;&lt;/div&gt;&lt;/div&gt;" style="text;whiteSpace=wrap;html=1;strokeColor=default;fillColor=default;" vertex="1" parent="1">
                    <mxGeometry x="80" width="450" height="590" as="geometry"/>
                </mxCell>
                <mxCell id="UxEc0G9LJvKMVo84v686-4" value="&lt;div style=&quot;background-color: rgb(255, 255, 255); font-family: consolas, 楷体, Consolas, &amp;quot;Courier New&amp;quot;, monospace; font-weight: normal; font-size: 18px; line-height: 24px;&quot;&gt;&lt;div style=&quot;text-align: center; color: rgb(0, 0, 0);&quot;&gt;&lt;span style=&quot;font-family: Helvetica;&quot;&gt;single.out&lt;/span&gt;&lt;span style=&quot;color: #098658;&quot;&gt;&lt;br&gt;&lt;/span&gt;&lt;/div&gt;&lt;div style=&quot;color: rgb(0, 0, 0);&quot;&gt;&lt;span style=&quot;color: #098658;&quot;&gt;0000000000001129&lt;/span&gt;&lt;span style=&quot;color: #000000;&quot;&gt; &amp;lt;main&amp;gt;: &amp;nbsp; &amp;nbsp; &amp;nbsp; &amp;nbsp; &amp;nbsp; &amp;nbsp; &amp;nbsp; &amp;nbsp;&lt;/span&gt;&lt;/div&gt;&lt;div style=&quot;color: rgb(0, 0, 0);&quot;&gt;&lt;span style=&quot;color: #000000;&quot;&gt;&amp;nbsp; &amp;nbsp; &lt;/span&gt;&lt;span style=&quot;color: #098658;&quot;&gt;1129&lt;/span&gt;&lt;span style=&quot;color: #000000;&quot;&gt;: &amp;nbsp; &amp;nbsp; &amp;nbsp; f3 0f 1e fa &amp;nbsp; &amp;nbsp; &amp;nbsp; &amp;nbsp; &amp;nbsp; &amp;nbsp; &lt;/span&gt;&lt;/div&gt;&lt;div style=&quot;color: rgb(0, 0, 0);&quot;&gt;&lt;span style=&quot;color: #000000;&quot;&gt;&amp;nbsp; &amp;nbsp; 112d: &amp;nbsp; &amp;nbsp; &amp;nbsp; &lt;/span&gt;&lt;span style=&quot;color: #098658;&quot;&gt;55&lt;/span&gt;&lt;span style=&quot;color: #000000;&quot;&gt; &amp;nbsp; &amp;nbsp; &amp;nbsp; &amp;nbsp; &amp;nbsp; &amp;nbsp; &amp;nbsp; &amp;nbsp; &amp;nbsp; &amp;nbsp; &amp;nbsp;&lt;/span&gt;&lt;/div&gt;&lt;div style=&quot;color: rgb(0, 0, 0);&quot;&gt;&lt;span style=&quot;color: #000000;&quot;&gt;&amp;nbsp; &amp;nbsp; 112e: &amp;nbsp; &amp;nbsp; &amp;nbsp; &lt;/span&gt;&lt;span style=&quot;color: #098658;&quot;&gt;48&lt;/span&gt;&lt;span style=&quot;color: #000000;&quot;&gt; &lt;/span&gt;&lt;span style=&quot;color: #098658;&quot;&gt;89&lt;/span&gt;&lt;span style=&quot;color: #000000;&quot;&gt; e5 &amp;nbsp; &amp;nbsp; &amp;nbsp; &amp;nbsp; &amp;nbsp; &amp;nbsp; &amp;nbsp; &amp;nbsp;&lt;/span&gt;&lt;/div&gt;&lt;div style=&quot;color: rgb(0, 0, 0);&quot;&gt;&lt;span style=&quot;color: #000000;&quot;&gt;&amp;nbsp; &amp;nbsp; &lt;/span&gt;&lt;span style=&quot;color: #098658;&quot;&gt;1131&lt;/span&gt;&lt;span style=&quot;color: #000000;&quot;&gt;: &amp;nbsp; &amp;nbsp; &amp;nbsp; be &lt;/span&gt;&lt;span style=&quot;color: #098658;&quot;&gt;02&lt;/span&gt;&lt;span style=&quot;color: #000000;&quot;&gt; &lt;/span&gt;&lt;span style=&quot;color: #098658;&quot;&gt;00&lt;/span&gt;&lt;span style=&quot;color: #000000;&quot;&gt; &lt;/span&gt;&lt;span style=&quot;color: #098658;&quot;&gt;00&lt;/span&gt;&lt;span style=&quot;color: #000000;&quot;&gt; &lt;/span&gt;&lt;span style=&quot;color: #098658;&quot;&gt;00&lt;/span&gt;&lt;span style=&quot;color: #000000;&quot;&gt; &amp;nbsp; &amp;nbsp; &amp;nbsp; &amp;nbsp; &amp;nbsp;&lt;/span&gt;&lt;/div&gt;&lt;div style=&quot;color: rgb(0, 0, 0);&quot;&gt;&lt;span style=&quot;color: #000000;&quot;&gt;&amp;nbsp; &amp;nbsp; &lt;/span&gt;&lt;span style=&quot;color: #098658;&quot;&gt;1136&lt;/span&gt;&lt;span style=&quot;color: #000000;&quot;&gt;: &amp;nbsp; &amp;nbsp; &amp;nbsp; bf &lt;/span&gt;&lt;span style=&quot;color: #098658;&quot;&gt;01&lt;/span&gt;&lt;span style=&quot;color: #000000;&quot;&gt; &lt;/span&gt;&lt;span style=&quot;color: #098658;&quot;&gt;00&lt;/span&gt;&lt;span style=&quot;color: #000000;&quot;&gt; &lt;/span&gt;&lt;span style=&quot;color: #098658;&quot;&gt;00&lt;/span&gt;&lt;span style=&quot;color: #000000;&quot;&gt; &lt;/span&gt;&lt;span style=&quot;color: #098658;&quot;&gt;00&lt;/span&gt;&lt;span style=&quot;color: #000000;&quot;&gt; &amp;nbsp; &amp;nbsp; &amp;nbsp; &amp;nbsp; &amp;nbsp;&lt;/span&gt;&lt;/div&gt;&lt;div style=&quot;&quot;&gt;&lt;span style=&quot;color: rgb(0, 0, 0);&quot;&gt;&amp;nbsp; &amp;nbsp; &lt;/span&gt;&lt;font color=&quot;#ff0000&quot;&gt;113b: &amp;nbsp; &amp;nbsp; &amp;nbsp; e8 0d 00 00 00 &lt;/font&gt;&lt;span style=&quot;color: rgb(0, 0, 0);&quot;&gt;&amp;nbsp; &amp;nbsp; &amp;nbsp; &amp;nbsp; &amp;nbsp;&lt;/span&gt;&lt;/div&gt;&lt;div style=&quot;color: rgb(0, 0, 0);&quot;&gt;&lt;span style=&quot;color: #000000;&quot;&gt;&amp;nbsp; &amp;nbsp; &lt;/span&gt;&lt;span style=&quot;color: #098658;&quot;&gt;1140&lt;/span&gt;&lt;span style=&quot;color: #000000;&quot;&gt;: &amp;nbsp; &amp;nbsp; &amp;nbsp; &lt;/span&gt;&lt;span style=&quot;color: #098658;&quot;&gt;89&lt;/span&gt;&lt;span style=&quot;color: #000000;&quot;&gt; &lt;/span&gt;&lt;span style=&quot;color: #098658;&quot;&gt;05&lt;/span&gt;&lt;span style=&quot;color: #000000;&quot;&gt; ce 2e &lt;/span&gt;&lt;span style=&quot;color: #098658;&quot;&gt;00&lt;/span&gt;&lt;span style=&quot;color: #000000;&quot;&gt; &lt;/span&gt;&lt;span style=&quot;color: #098658;&quot;&gt;00&lt;/span&gt;&lt;span style=&quot;color: #000000;&quot;&gt; &amp;nbsp; &amp;nbsp; &amp;nbsp; &lt;/span&gt;&lt;/div&gt;&lt;div style=&quot;color: rgb(0, 0, 0);&quot;&gt;&lt;span style=&quot;color: #000000;&quot;&gt;&amp;nbsp; &amp;nbsp; &lt;/span&gt;&lt;span style=&quot;color: #098658;&quot;&gt;1146&lt;/span&gt;&lt;span style=&quot;color: #000000;&quot;&gt;: &amp;nbsp; &amp;nbsp; &amp;nbsp; &lt;/span&gt;&lt;span style=&quot;color: #0000ff;&quot;&gt;b8&lt;/span&gt;&lt;span style=&quot;color: #000000;&quot;&gt; &lt;/span&gt;&lt;span style=&quot;color: #098658;&quot;&gt;00&lt;/span&gt;&lt;span style=&quot;color: #000000;&quot;&gt; &lt;/span&gt;&lt;span style=&quot;color: #098658;&quot;&gt;00&lt;/span&gt;&lt;span style=&quot;color: #000000;&quot;&gt; &lt;/span&gt;&lt;span style=&quot;color: #098658;&quot;&gt;00&lt;/span&gt;&lt;span style=&quot;color: #000000;&quot;&gt; &lt;/span&gt;&lt;span style=&quot;color: #098658;&quot;&gt;00&lt;/span&gt;&lt;span style=&quot;color: #000000;&quot;&gt; &amp;nbsp; &amp;nbsp; &amp;nbsp; &amp;nbsp; &amp;nbsp;&lt;/span&gt;&lt;/div&gt;&lt;div style=&quot;color: rgb(0, 0, 0);&quot;&gt;&lt;span style=&quot;color: #000000;&quot;&gt;&amp;nbsp; &amp;nbsp; 114b: &amp;nbsp; &amp;nbsp; &amp;nbsp; 5d &amp;nbsp; &amp;nbsp; &amp;nbsp; &amp;nbsp; &amp;nbsp; &amp;nbsp; &amp;nbsp; &amp;nbsp; &amp;nbsp; &amp;nbsp; &amp;nbsp;&lt;/span&gt;&lt;/div&gt;&lt;div style=&quot;color: rgb(0, 0, 0);&quot;&gt;&lt;span style=&quot;color: #000000;&quot;&gt;&amp;nbsp; &amp;nbsp; 114c: &amp;nbsp; &amp;nbsp; &amp;nbsp; &lt;/span&gt;&lt;span style=&quot;color: #0000ff;&quot;&gt;c3&lt;/span&gt;&lt;span style=&quot;color: #000000;&quot;&gt; &amp;nbsp; &amp;nbsp; &amp;nbsp; &amp;nbsp; &amp;nbsp; &amp;nbsp; &amp;nbsp; &amp;nbsp; &amp;nbsp; &amp;nbsp; &amp;nbsp;&lt;/span&gt;&lt;/div&gt;&lt;br&gt;&lt;div style=&quot;color: rgb(0, 0, 0);&quot;&gt;&lt;span style=&quot;color: #000000;&quot;&gt;000000000000114d &amp;lt;add&amp;gt;: &amp;nbsp; &amp;nbsp; &amp;nbsp; &amp;nbsp; &amp;nbsp; &amp;nbsp; &amp;nbsp; &amp;nbsp; &lt;/span&gt;&lt;/div&gt;&lt;div style=&quot;color: rgb(0, 0, 0);&quot;&gt;&lt;span style=&quot;color: #000000;&quot;&gt;&amp;nbsp; &amp;nbsp; 114d: &amp;nbsp; &amp;nbsp; &amp;nbsp; f3 0f 1e fa &amp;nbsp; &amp;nbsp; &amp;nbsp; &amp;nbsp; &amp;nbsp; &amp;nbsp; &lt;/span&gt;&lt;/div&gt;&lt;div style=&quot;color: rgb(0, 0, 0);&quot;&gt;&lt;span style=&quot;color: #000000;&quot;&gt;&amp;nbsp; &amp;nbsp; &lt;/span&gt;&lt;span style=&quot;color: #098658;&quot;&gt;1151&lt;/span&gt;&lt;span style=&quot;color: #000000;&quot;&gt;: &amp;nbsp; &amp;nbsp; &amp;nbsp; &lt;/span&gt;&lt;span style=&quot;color: #098658;&quot;&gt;55&lt;/span&gt;&lt;span style=&quot;color: #000000;&quot;&gt; &amp;nbsp; &amp;nbsp; &amp;nbsp; &amp;nbsp; &amp;nbsp; &amp;nbsp; &amp;nbsp; &amp;nbsp; &amp;nbsp; &amp;nbsp; &amp;nbsp;&lt;/span&gt;&lt;/div&gt;&lt;div style=&quot;color: rgb(0, 0, 0);&quot;&gt;&lt;span style=&quot;color: #000000;&quot;&gt;&amp;nbsp; &amp;nbsp; &lt;/span&gt;&lt;span style=&quot;color: #098658;&quot;&gt;1152&lt;/span&gt;&lt;span style=&quot;color: #000000;&quot;&gt;: &amp;nbsp; &amp;nbsp; &amp;nbsp; &lt;/span&gt;&lt;span style=&quot;color: #098658;&quot;&gt;48&lt;/span&gt;&lt;span style=&quot;color: #000000;&quot;&gt; &lt;/span&gt;&lt;span style=&quot;color: #098658;&quot;&gt;89&lt;/span&gt;&lt;span style=&quot;color: #000000;&quot;&gt; e5 &amp;nbsp; &amp;nbsp; &amp;nbsp; &amp;nbsp; &amp;nbsp; &amp;nbsp; &amp;nbsp; &amp;nbsp;&lt;/span&gt;&lt;/div&gt;&lt;div style=&quot;color: rgb(0, 0, 0);&quot;&gt;&lt;span style=&quot;color: #000000;&quot;&gt;&amp;nbsp; &amp;nbsp; &lt;/span&gt;&lt;span style=&quot;color: #098658;&quot;&gt;1155&lt;/span&gt;&lt;span style=&quot;color: #000000;&quot;&gt;: &amp;nbsp; &amp;nbsp; &amp;nbsp; &lt;/span&gt;&lt;span style=&quot;color: #098658;&quot;&gt;89&lt;/span&gt;&lt;span style=&quot;color: #000000;&quot;&gt; 7d fc &amp;nbsp; &amp;nbsp; &amp;nbsp; &amp;nbsp; &amp;nbsp; &amp;nbsp; &amp;nbsp; &amp;nbsp;&lt;/span&gt;&lt;/div&gt;&lt;div style=&quot;color: rgb(0, 0, 0);&quot;&gt;&lt;span style=&quot;color: #000000;&quot;&gt;&amp;nbsp; &amp;nbsp; &lt;/span&gt;&lt;span style=&quot;color: #098658;&quot;&gt;1158&lt;/span&gt;&lt;span style=&quot;color: #000000;&quot;&gt;: &amp;nbsp; &amp;nbsp; &amp;nbsp; &lt;/span&gt;&lt;span style=&quot;color: #098658;&quot;&gt;89&lt;/span&gt;&lt;span style=&quot;color: #000000;&quot;&gt; &lt;/span&gt;&lt;span style=&quot;color: #098658;&quot;&gt;75&lt;/span&gt;&lt;span style=&quot;color: #000000;&quot;&gt; f8 &amp;nbsp; &amp;nbsp; &amp;nbsp; &amp;nbsp; &amp;nbsp; &amp;nbsp; &amp;nbsp; &amp;nbsp;&lt;/span&gt;&lt;/div&gt;&lt;div style=&quot;color: rgb(0, 0, 0);&quot;&gt;&lt;span style=&quot;color: #000000;&quot;&gt;&amp;nbsp; &amp;nbsp; 115b: &amp;nbsp; &amp;nbsp; &amp;nbsp; 8b &lt;/span&gt;&lt;span style=&quot;color: #098658;&quot;&gt;55&lt;/span&gt;&lt;span style=&quot;color: #000000;&quot;&gt; fc &amp;nbsp; &amp;nbsp; &amp;nbsp; &amp;nbsp; &amp;nbsp; &amp;nbsp; &amp;nbsp; &amp;nbsp;&lt;/span&gt;&lt;/div&gt;&lt;div style=&quot;color: rgb(0, 0, 0);&quot;&gt;&lt;span style=&quot;color: #000000;&quot;&gt;&amp;nbsp; &amp;nbsp; 115e: &amp;nbsp; &amp;nbsp; &amp;nbsp; 8b &lt;/span&gt;&lt;span style=&quot;color: #098658;&quot;&gt;45&lt;/span&gt;&lt;span style=&quot;color: #000000;&quot;&gt; f8 &amp;nbsp; &amp;nbsp; &amp;nbsp; &amp;nbsp; &amp;nbsp; &amp;nbsp; &amp;nbsp; &amp;nbsp;&lt;/span&gt;&lt;/div&gt;&lt;div style=&quot;color: rgb(0, 0, 0);&quot;&gt;&lt;span style=&quot;color: #000000;&quot;&gt;&amp;nbsp; &amp;nbsp; &lt;/span&gt;&lt;span style=&quot;color: #098658;&quot;&gt;1161&lt;/span&gt;&lt;span style=&quot;color: #000000;&quot;&gt;: &amp;nbsp; &amp;nbsp; &amp;nbsp; &lt;/span&gt;&lt;span style=&quot;color: #098658;&quot;&gt;01&lt;/span&gt;&lt;span style=&quot;color: #000000;&quot;&gt; &lt;/span&gt;&lt;span style=&quot;color: #0000ff;&quot;&gt;d0&lt;/span&gt;&lt;span style=&quot;color: #000000;&quot;&gt; &amp;nbsp; &amp;nbsp; &amp;nbsp; &amp;nbsp; &amp;nbsp; &amp;nbsp; &amp;nbsp; &amp;nbsp; &amp;nbsp; &lt;/span&gt;&lt;/div&gt;&lt;div style=&quot;color: rgb(0, 0, 0);&quot;&gt;&lt;span style=&quot;color: #000000;&quot;&gt;&amp;nbsp; &amp;nbsp; &lt;/span&gt;&lt;span style=&quot;color: #098658;&quot;&gt;1163&lt;/span&gt;&lt;span style=&quot;color: #000000;&quot;&gt;: &amp;nbsp; &amp;nbsp; &amp;nbsp; 5d &amp;nbsp; &amp;nbsp; &amp;nbsp; &amp;nbsp; &amp;nbsp; &amp;nbsp; &amp;nbsp; &amp;nbsp; &amp;nbsp; &amp;nbsp; &amp;nbsp;&lt;/span&gt;&lt;/div&gt;&lt;div style=&quot;color: rgb(0, 0, 0);&quot;&gt;&lt;span style=&quot;color: #000000;&quot;&gt;&amp;nbsp; &amp;nbsp; &lt;/span&gt;&lt;span style=&quot;color: #098658;&quot;&gt;1164&lt;/span&gt;&lt;span style=&quot;color: #000000;&quot;&gt;: &amp;nbsp; &amp;nbsp; &amp;nbsp; &lt;/span&gt;&lt;span style=&quot;color: #0000ff;&quot;&gt;c3&lt;/span&gt;&lt;span style=&quot;color: #000000;&quot;&gt; &amp;nbsp; &amp;nbsp; &amp;nbsp; &amp;nbsp; &amp;nbsp; &amp;nbsp; &amp;nbsp; &amp;nbsp; &amp;nbsp; &amp;nbsp; &amp;nbsp;&lt;/span&gt;&lt;/div&gt;&lt;/div&gt;" style="text;whiteSpace=wrap;html=1;strokeColor=default;fillColor=default;" vertex="1" parent="1">
                    <mxGeometry x="-360" width="440" height="590" as="geometry"/>
                </mxCell>
                <mxCell id="UxEc0G9LJvKMVo84v686-8" value="&lt;div style=&quot;color: rgb(0, 0, 0); background-color: rgb(255, 255, 255); font-family: consolas, 楷体, Consolas, &amp;quot;Courier New&amp;quot;, monospace; font-weight: normal; font-size: 18px; line-height: 24px;&quot;&gt;&lt;div style=&quot;text-align: center;&quot;&gt;&lt;span style=&quot;color: #0000ff;&quot;&gt;single.c&lt;/span&gt;&lt;/div&gt;&lt;div&gt;&lt;span style=&quot;color: #0000ff;&quot;&gt;int&lt;/span&gt;&lt;span style=&quot;color: #000000;&quot;&gt; &lt;/span&gt;&lt;span style=&quot;color: #000000;&quot;&gt;add&lt;/span&gt;&lt;span style=&quot;color: #000000;&quot;&gt;(&lt;/span&gt;&lt;span style=&quot;color: #0000ff;&quot;&gt;int&lt;/span&gt;&lt;span style=&quot;color: #000000;&quot;&gt;, &lt;/span&gt;&lt;span style=&quot;color: #0000ff;&quot;&gt;int&lt;/span&gt;&lt;span style=&quot;color: #000000;&quot;&gt;);&lt;/span&gt;&lt;/div&gt;&lt;div&gt;&lt;span style=&quot;color: #0000ff;&quot;&gt;int&lt;/span&gt;&lt;span style=&quot;color: #000000;&quot;&gt; &lt;/span&gt;&lt;span style=&quot;color: #000000;&quot;&gt;x&lt;/span&gt;&lt;span style=&quot;color: #000000;&quot;&gt;;&lt;/span&gt;&lt;/div&gt;&lt;br&gt;&lt;div&gt;&lt;span style=&quot;color: #0000ff;&quot;&gt;int&lt;/span&gt;&lt;span style=&quot;color: #000000;&quot;&gt; &lt;/span&gt;&lt;span style=&quot;color: #000000;&quot;&gt;main&lt;/span&gt;&lt;span style=&quot;color: #000000;&quot;&gt;()&lt;/span&gt;&lt;/div&gt;&lt;div&gt;&lt;span style=&quot;color: #000000;&quot;&gt;{&lt;/span&gt;&lt;/div&gt;&lt;div&gt;&lt;span style=&quot;color: #000000;&quot;&gt;&amp;nbsp; &amp;nbsp; &lt;/span&gt;&lt;span style=&quot;color: #000000;&quot;&gt;x&lt;/span&gt;&lt;span style=&quot;color: #000000;&quot;&gt; = &lt;/span&gt;&lt;span style=&quot;color: #000000;&quot;&gt;add&lt;/span&gt;&lt;span style=&quot;color: #000000;&quot;&gt;(&lt;/span&gt;&lt;span style=&quot;color: #098658;&quot;&gt;1&lt;/span&gt;&lt;span style=&quot;color: #000000;&quot;&gt;, &lt;/span&gt;&lt;span style=&quot;color: #098658;&quot;&gt;2&lt;/span&gt;&lt;span style=&quot;color: #000000;&quot;&gt;);&lt;/span&gt;&lt;/div&gt;&lt;div&gt;&lt;span style=&quot;color: #000000;&quot;&gt;&amp;nbsp; &amp;nbsp; &lt;/span&gt;&lt;span style=&quot;color: #0000ff;&quot;&gt;return&lt;/span&gt;&lt;span style=&quot;color: #000000;&quot;&gt; &lt;/span&gt;&lt;span style=&quot;color: #098658;&quot;&gt;0&lt;/span&gt;&lt;span style=&quot;color: #000000;&quot;&gt;;&lt;/span&gt;&lt;/div&gt;&lt;div&gt;&lt;span style=&quot;color: #000000;&quot;&gt;}&lt;/span&gt;&lt;/div&gt;&lt;br&gt;&lt;div&gt;&lt;span style=&quot;color: #0000ff;&quot;&gt;int&lt;/span&gt;&lt;span style=&quot;color: #000000;&quot;&gt; &lt;/span&gt;&lt;span style=&quot;color: #000000;&quot;&gt;add&lt;/span&gt;&lt;span style=&quot;color: #000000;&quot;&gt;(&lt;/span&gt;&lt;span style=&quot;color: #0000ff;&quot;&gt;int&lt;/span&gt;&lt;span style=&quot;color: #000000;&quot;&gt; &lt;/span&gt;&lt;span style=&quot;color: #808080;&quot;&gt;x&lt;/span&gt;&lt;span style=&quot;color: #000000;&quot;&gt;, &lt;/span&gt;&lt;span style=&quot;color: #0000ff;&quot;&gt;int&lt;/span&gt;&lt;span style=&quot;color: #000000;&quot;&gt; &lt;/span&gt;&lt;span style=&quot;color: #808080;&quot;&gt;y&lt;/span&gt;&lt;span style=&quot;color: #000000;&quot;&gt;)&lt;/span&gt;&lt;/div&gt;&lt;div&gt;&lt;span style=&quot;color: #000000;&quot;&gt;{&lt;/span&gt;&lt;/div&gt;&lt;div&gt;&lt;span style=&quot;color: #000000;&quot;&gt;&amp;nbsp; &amp;nbsp; &lt;/span&gt;&lt;span style=&quot;color: #0000ff;&quot;&gt;return&lt;/span&gt;&lt;span style=&quot;color: #000000;&quot;&gt; &lt;/span&gt;&lt;span style=&quot;color: #808080;&quot;&gt;x&lt;/span&gt;&lt;span style=&quot;color: #000000;&quot;&gt; + &lt;/span&gt;&lt;span style=&quot;color: #808080;&quot;&gt;y&lt;/span&gt;&lt;span style=&quot;color: #000000;&quot;&gt;;&lt;/span&gt;&lt;/div&gt;&lt;div&gt;&lt;span style=&quot;color: #000000;&quot;&gt;}&lt;/span&gt;&lt;/div&gt;&lt;/div&gt;" style="text;whiteSpace=wrap;html=1;fontSize=18;fontColor=#000000;strokeColor=default;fillColor=default;gradientColor=none;" vertex="1" parent="1">
                    <mxGeometry x="-1520" width="240" height="350" as="geometry"/>
                </mxCell>
                <mxCell id="UxEc0G9LJvKMVo84v686-10" value="&lt;div style=&quot;background-color: rgb(255, 255, 255); font-family: consolas, 楷体, Consolas, &amp;quot;Courier New&amp;quot;, monospace; font-weight: normal; font-size: 18px; line-height: 24px;&quot;&gt;&lt;div style=&quot;line-height: 24px;&quot;&gt;&lt;div style=&quot;color: rgb(0, 0, 0); text-align: center;&quot;&gt;objdump -d single.o&lt;/div&gt;&lt;div style=&quot;color: rgb(0, 0, 0);&quot;&gt;&amp;lt;main&amp;gt;:&lt;/div&gt;&lt;div style=&quot;color: rgb(0, 0, 0);&quot;&gt;endbr64&lt;/div&gt;&lt;div style=&quot;color: rgb(0, 0, 0);&quot;&gt;push &amp;nbsp; %rbp&lt;/div&gt;&lt;div style=&quot;color: rgb(0, 0, 0);&quot;&gt;mov &amp;nbsp; &amp;nbsp;%rsp,%rbp&lt;/div&gt;&lt;div style=&quot;color: rgb(0, 0, 0);&quot;&gt;mov &amp;nbsp; &amp;nbsp;$&lt;span style=&quot;color: #098658;&quot;&gt;0x2&lt;/span&gt;,%esi&lt;/div&gt;&lt;div style=&quot;color: rgb(0, 0, 0);&quot;&gt;mov &amp;nbsp; &amp;nbsp;$&lt;span style=&quot;color: #098658;&quot;&gt;0x1&lt;/span&gt;,%edi&lt;/div&gt;&lt;div style=&quot;&quot;&gt;&lt;font color=&quot;#ff0000&quot;&gt;call &amp;nbsp; 17 &amp;lt;main+0x17&amp;gt;&lt;/font&gt;&lt;/div&gt;&lt;div style=&quot;&quot;&gt;&lt;font color=&quot;#0000ff&quot;&gt;mov &amp;nbsp; &amp;nbsp;%eax,0x0(%rip)&lt;/font&gt;&lt;span style=&quot;color: rgb(0, 0, 0);&quot;&gt; &amp;nbsp; &amp;nbsp; &amp;nbsp; &amp;nbsp;&lt;span style=&quot;color: #008000;&quot;&gt;# 1d &amp;lt;main+0x1d&amp;gt;&lt;/span&gt;&lt;/span&gt;&lt;/div&gt;&lt;div style=&quot;color: rgb(0, 0, 0);&quot;&gt;mov &amp;nbsp; &amp;nbsp;$&lt;span style=&quot;color: #098658;&quot;&gt;0x0&lt;/span&gt;,%eax&lt;/div&gt;&lt;div style=&quot;color: rgb(0, 0, 0);&quot;&gt;pop &amp;nbsp; &amp;nbsp;%rbp&lt;/div&gt;&lt;div style=&quot;color: rgb(0, 0, 0);&quot;&gt;ret&lt;/div&gt;&lt;br&gt;&lt;div style=&quot;color: rgb(0, 0, 0);&quot;&gt;&amp;lt;add&amp;gt;:&lt;/div&gt;&lt;div style=&quot;color: rgb(0, 0, 0);&quot;&gt;endbr64&lt;/div&gt;&lt;div style=&quot;color: rgb(0, 0, 0);&quot;&gt;push &amp;nbsp; %rbp&lt;/div&gt;&lt;div style=&quot;color: rgb(0, 0, 0);&quot;&gt;mov &amp;nbsp; &amp;nbsp;%rsp,%rbp&lt;/div&gt;&lt;div style=&quot;color: rgb(0, 0, 0);&quot;&gt;mov &amp;nbsp; &amp;nbsp;%edi,&lt;span style=&quot;color: #098658;&quot;&gt;-0x4&lt;/span&gt;(%rbp)&lt;/div&gt;&lt;div style=&quot;color: rgb(0, 0, 0);&quot;&gt;mov &amp;nbsp; &amp;nbsp;%esi,&lt;span style=&quot;color: #098658;&quot;&gt;-0x8&lt;/span&gt;(%rbp)&lt;/div&gt;&lt;div style=&quot;color: rgb(0, 0, 0);&quot;&gt;mov &amp;nbsp; &amp;nbsp;&lt;span style=&quot;color: #098658;&quot;&gt;-0x4&lt;/span&gt;(%rbp),%edx&lt;/div&gt;&lt;div style=&quot;color: rgb(0, 0, 0);&quot;&gt;mov &amp;nbsp; &amp;nbsp;&lt;span style=&quot;color: #098658;&quot;&gt;-0x8&lt;/span&gt;(%rbp),%eax&lt;/div&gt;&lt;div style=&quot;color: rgb(0, 0, 0);&quot;&gt;add &amp;nbsp; &amp;nbsp;%edx,%eax&lt;/div&gt;&lt;div style=&quot;color: rgb(0, 0, 0);&quot;&gt;pop &amp;nbsp; &amp;nbsp;%rbp&lt;/div&gt;&lt;div style=&quot;color: rgb(0, 0, 0);&quot;&gt;ret&lt;/div&gt;&lt;/div&gt;&lt;/div&gt;" style="text;whiteSpace=wrap;html=1;fontSize=18;fontColor=#000000;strokeColor=default;fillColor=default;" vertex="1" parent="1">
                    <mxGeometry x="-840" width="480" height="590" as="geometry"/>
                </mxCell>
                <mxCell id="UxEc0G9LJvKMVo84v686-11" value="&lt;div style=&quot;background-color: rgb(255, 255, 255); font-family: consolas, 楷体, Consolas, &amp;quot;Courier New&amp;quot;, monospace; font-weight: normal; font-size: 18px; line-height: 24px;&quot;&gt;&lt;div style=&quot;text-align: center;&quot;&gt;single.o&lt;/div&gt;&lt;div style=&quot;color: rgb(0, 0, 0);&quot;&gt;&lt;span style=&quot;color: #098658;&quot;&gt;0000000000000000&lt;/span&gt;&lt;span style=&quot;color: #000000;&quot;&gt; &amp;lt;main&amp;gt;: &amp;nbsp; &amp;nbsp; &amp;nbsp; &amp;nbsp;&lt;/span&gt;&lt;/div&gt;&lt;div style=&quot;color: rgb(0, 0, 0);&quot;&gt;&lt;span style=&quot;color: #000000;&quot;&gt;&amp;nbsp; &amp;nbsp;&lt;/span&gt;&lt;span style=&quot;color: #098658;&quot;&gt;0&lt;/span&gt;&lt;span style=&quot;color: #000000;&quot;&gt;: &amp;nbsp; f3 0f 1e fa &amp;nbsp; &amp;nbsp; &amp;nbsp; &amp;nbsp; &amp;nbsp; &amp;nbsp; &lt;/span&gt;&lt;/div&gt;&lt;div style=&quot;color: rgb(0, 0, 0);&quot;&gt;&lt;span style=&quot;color: #000000;&quot;&gt;&amp;nbsp; &amp;nbsp;&lt;/span&gt;&lt;span style=&quot;color: #098658;&quot;&gt;4&lt;/span&gt;&lt;span style=&quot;color: #000000;&quot;&gt;: &amp;nbsp; &lt;/span&gt;&lt;span style=&quot;color: #098658;&quot;&gt;55&lt;/span&gt;&lt;span style=&quot;color: #000000;&quot;&gt; &amp;nbsp; &amp;nbsp; &amp;nbsp; &amp;nbsp; &amp;nbsp; &amp;nbsp; &amp;nbsp; &amp;nbsp; &amp;nbsp; &amp;nbsp; &amp;nbsp;&lt;/span&gt;&lt;/div&gt;&lt;div style=&quot;color: rgb(0, 0, 0);&quot;&gt;&lt;span style=&quot;color: #000000;&quot;&gt;&amp;nbsp; &amp;nbsp;&lt;/span&gt;&lt;span style=&quot;color: #098658;&quot;&gt;5&lt;/span&gt;&lt;span style=&quot;color: #000000;&quot;&gt;: &amp;nbsp; &lt;/span&gt;&lt;span style=&quot;color: #098658;&quot;&gt;48&lt;/span&gt;&lt;span style=&quot;color: #000000;&quot;&gt; &lt;/span&gt;&lt;span style=&quot;color: #098658;&quot;&gt;89&lt;/span&gt;&lt;span style=&quot;color: #000000;&quot;&gt; e5 &amp;nbsp; &amp;nbsp; &amp;nbsp; &amp;nbsp; &amp;nbsp; &amp;nbsp; &amp;nbsp; &amp;nbsp;&lt;/span&gt;&lt;/div&gt;&lt;div style=&quot;color: rgb(0, 0, 0);&quot;&gt;&lt;span style=&quot;color: #000000;&quot;&gt;&amp;nbsp; &amp;nbsp;&lt;/span&gt;&lt;span style=&quot;color: #098658;&quot;&gt;8&lt;/span&gt;&lt;span style=&quot;color: #000000;&quot;&gt;: &amp;nbsp; be &lt;/span&gt;&lt;span style=&quot;color: #098658;&quot;&gt;02&lt;/span&gt;&lt;span style=&quot;color: #000000;&quot;&gt; &lt;/span&gt;&lt;span style=&quot;color: #098658;&quot;&gt;00&lt;/span&gt;&lt;span style=&quot;color: #000000;&quot;&gt; &lt;/span&gt;&lt;span style=&quot;color: #098658;&quot;&gt;00&lt;/span&gt;&lt;span style=&quot;color: #000000;&quot;&gt; &lt;/span&gt;&lt;span style=&quot;color: #098658;&quot;&gt;00&lt;/span&gt;&lt;span style=&quot;color: #000000;&quot;&gt; &amp;nbsp; &amp;nbsp; &amp;nbsp; &amp;nbsp; &amp;nbsp;&lt;/span&gt;&lt;/div&gt;&lt;div style=&quot;color: rgb(0, 0, 0);&quot;&gt;&lt;span style=&quot;color: #000000;&quot;&gt;&amp;nbsp; &amp;nbsp;d: &amp;nbsp; bf &lt;/span&gt;&lt;span style=&quot;color: #098658;&quot;&gt;01&lt;/span&gt;&lt;span style=&quot;color: #000000;&quot;&gt; &lt;/span&gt;&lt;span style=&quot;color: #098658;&quot;&gt;00&lt;/span&gt;&lt;span style=&quot;color: #000000;&quot;&gt; &lt;/span&gt;&lt;span style=&quot;color: #098658;&quot;&gt;00&lt;/span&gt;&lt;span style=&quot;color: #000000;&quot;&gt; &lt;/span&gt;&lt;span style=&quot;color: #098658;&quot;&gt;00&lt;/span&gt;&lt;span style=&quot;color: #000000;&quot;&gt; &amp;nbsp; &amp;nbsp; &amp;nbsp; &amp;nbsp; &amp;nbsp;&lt;/span&gt;&lt;/div&gt;&lt;div style=&quot;&quot;&gt;&lt;font color=&quot;#ff0000&quot;&gt;&amp;nbsp; 12: &amp;nbsp; e8 00 00 00 00 &amp;nbsp;&lt;/font&gt;&lt;span style=&quot;color: rgb(0, 0, 0);&quot;&gt; &amp;nbsp; &amp;nbsp; &amp;nbsp; &amp;nbsp;&lt;/span&gt;&lt;/div&gt;&lt;div style=&quot;&quot;&gt;&lt;span style=&quot;color: rgb(0, 0, 0);&quot;&gt;&amp;nbsp; &lt;/span&gt;&lt;font color=&quot;#0000ff&quot;&gt;17: &amp;nbsp; 89 05 00 00 00 00 &lt;/font&gt;&lt;span style=&quot;color: rgb(0, 0, 0);&quot;&gt;&amp;nbsp; &amp;nbsp; &amp;nbsp; &lt;/span&gt;&lt;/div&gt;&lt;div style=&quot;color: rgb(0, 0, 0);&quot;&gt;&lt;span style=&quot;color: #000000;&quot;&gt;&amp;nbsp; 1d: &amp;nbsp; &lt;/span&gt;&lt;span style=&quot;color: #0000ff;&quot;&gt;b8&lt;/span&gt;&lt;span style=&quot;color: #000000;&quot;&gt; &lt;/span&gt;&lt;span style=&quot;color: #098658;&quot;&gt;00&lt;/span&gt;&lt;span style=&quot;color: #000000;&quot;&gt; &lt;/span&gt;&lt;span style=&quot;color: #098658;&quot;&gt;00&lt;/span&gt;&lt;span style=&quot;color: #000000;&quot;&gt; &lt;/span&gt;&lt;span style=&quot;color: #098658;&quot;&gt;00&lt;/span&gt;&lt;span style=&quot;color: #000000;&quot;&gt; &lt;/span&gt;&lt;span style=&quot;color: #098658;&quot;&gt;00&lt;/span&gt;&lt;span style=&quot;color: #000000;&quot;&gt; &amp;nbsp; &amp;nbsp; &amp;nbsp; &amp;nbsp; &amp;nbsp;&lt;/span&gt;&lt;/div&gt;&lt;div style=&quot;color: rgb(0, 0, 0);&quot;&gt;&lt;span style=&quot;color: #000000;&quot;&gt;&amp;nbsp; &lt;/span&gt;&lt;span style=&quot;color: #098658;&quot;&gt;22&lt;/span&gt;&lt;span style=&quot;color: #000000;&quot;&gt;: &amp;nbsp; 5d &amp;nbsp; &amp;nbsp; &amp;nbsp; &amp;nbsp; &amp;nbsp; &amp;nbsp; &amp;nbsp; &amp;nbsp; &amp;nbsp; &amp;nbsp; &amp;nbsp;&lt;/span&gt;&lt;/div&gt;&lt;div style=&quot;color: rgb(0, 0, 0);&quot;&gt;&lt;span style=&quot;color: #000000;&quot;&gt;&amp;nbsp; &lt;/span&gt;&lt;span style=&quot;color: #098658;&quot;&gt;23&lt;/span&gt;&lt;span style=&quot;color: #000000;&quot;&gt;: &amp;nbsp; &lt;/span&gt;&lt;span style=&quot;color: #0000ff;&quot;&gt;c3&lt;/span&gt;&lt;span style=&quot;color: #000000;&quot;&gt; &amp;nbsp; &amp;nbsp; &amp;nbsp; &amp;nbsp; &amp;nbsp; &amp;nbsp; &amp;nbsp; &amp;nbsp; &amp;nbsp; &amp;nbsp; &amp;nbsp;&lt;/span&gt;&lt;/div&gt;&lt;div style=&quot;color: rgb(0, 0, 0);&quot;&gt;&lt;span style=&quot;color: #000000;&quot;&gt;&amp;nbsp; &amp;nbsp; &amp;nbsp; &amp;nbsp; &amp;nbsp; &amp;nbsp; &amp;nbsp; &amp;nbsp; &amp;nbsp; &amp;nbsp; &amp;nbsp; &amp;nbsp; &amp;nbsp; &amp;nbsp; &amp;nbsp; &amp;nbsp; &lt;/span&gt;&lt;/div&gt;&lt;div style=&quot;color: rgb(0, 0, 0);&quot;&gt;&lt;span style=&quot;color: #098658;&quot;&gt;0000000000000024&lt;/span&gt;&lt;span style=&quot;color: #000000;&quot;&gt; &amp;lt;add&amp;gt;: &amp;nbsp; &amp;nbsp; &amp;nbsp; &amp;nbsp; &lt;/span&gt;&lt;/div&gt;&lt;div style=&quot;color: rgb(0, 0, 0);&quot;&gt;&lt;span style=&quot;color: #000000;&quot;&gt;&amp;nbsp; &lt;/span&gt;&lt;span style=&quot;color: #098658;&quot;&gt;24&lt;/span&gt;&lt;span style=&quot;color: #000000;&quot;&gt;: &amp;nbsp; f3 0f 1e fa &amp;nbsp; &amp;nbsp; &amp;nbsp; &amp;nbsp; &amp;nbsp; &amp;nbsp; &lt;/span&gt;&lt;/div&gt;&lt;div style=&quot;color: rgb(0, 0, 0);&quot;&gt;&lt;span style=&quot;color: #000000;&quot;&gt;&amp;nbsp; &lt;/span&gt;&lt;span style=&quot;color: #098658;&quot;&gt;28&lt;/span&gt;&lt;span style=&quot;color: #000000;&quot;&gt;: &amp;nbsp; &lt;/span&gt;&lt;span style=&quot;color: #098658;&quot;&gt;55&lt;/span&gt;&lt;span style=&quot;color: #000000;&quot;&gt; &amp;nbsp; &amp;nbsp; &amp;nbsp; &amp;nbsp; &amp;nbsp; &amp;nbsp; &amp;nbsp; &amp;nbsp; &amp;nbsp; &amp;nbsp; &amp;nbsp;&lt;/span&gt;&lt;/div&gt;&lt;div style=&quot;color: rgb(0, 0, 0);&quot;&gt;&lt;span style=&quot;color: #000000;&quot;&gt;&amp;nbsp; &lt;/span&gt;&lt;span style=&quot;color: #098658;&quot;&gt;29&lt;/span&gt;&lt;span style=&quot;color: #000000;&quot;&gt;: &amp;nbsp; &lt;/span&gt;&lt;span style=&quot;color: #098658;&quot;&gt;48&lt;/span&gt;&lt;span style=&quot;color: #000000;&quot;&gt; &lt;/span&gt;&lt;span style=&quot;color: #098658;&quot;&gt;89&lt;/span&gt;&lt;span style=&quot;color: #000000;&quot;&gt; e5 &amp;nbsp; &amp;nbsp; &amp;nbsp; &amp;nbsp; &amp;nbsp; &amp;nbsp; &amp;nbsp; &amp;nbsp;&lt;/span&gt;&lt;/div&gt;&lt;div style=&quot;color: rgb(0, 0, 0);&quot;&gt;&lt;span style=&quot;color: #000000;&quot;&gt;&amp;nbsp; 2c: &amp;nbsp; &lt;/span&gt;&lt;span style=&quot;color: #098658;&quot;&gt;89&lt;/span&gt;&lt;span style=&quot;color: #000000;&quot;&gt; 7d fc &amp;nbsp; &amp;nbsp; &amp;nbsp; &amp;nbsp; &amp;nbsp; &amp;nbsp; &amp;nbsp; &amp;nbsp;&lt;/span&gt;&lt;/div&gt;&lt;div style=&quot;color: rgb(0, 0, 0);&quot;&gt;&lt;span style=&quot;color: #000000;&quot;&gt;&amp;nbsp; 2f: &amp;nbsp; &lt;/span&gt;&lt;span style=&quot;color: #098658;&quot;&gt;89&lt;/span&gt;&lt;span style=&quot;color: #000000;&quot;&gt; &lt;/span&gt;&lt;span style=&quot;color: #098658;&quot;&gt;75&lt;/span&gt;&lt;span style=&quot;color: #000000;&quot;&gt; f8 &amp;nbsp; &amp;nbsp; &amp;nbsp; &amp;nbsp; &amp;nbsp; &amp;nbsp; &amp;nbsp; &amp;nbsp;&lt;/span&gt;&lt;/div&gt;&lt;div style=&quot;color: rgb(0, 0, 0);&quot;&gt;&lt;span style=&quot;color: #000000;&quot;&gt;&amp;nbsp; &lt;/span&gt;&lt;span style=&quot;color: #098658;&quot;&gt;32&lt;/span&gt;&lt;span style=&quot;color: #000000;&quot;&gt;: &amp;nbsp; 8b &lt;/span&gt;&lt;span style=&quot;color: #098658;&quot;&gt;55&lt;/span&gt;&lt;span style=&quot;color: #000000;&quot;&gt; fc &amp;nbsp; &amp;nbsp; &amp;nbsp; &amp;nbsp; &amp;nbsp; &amp;nbsp; &amp;nbsp; &amp;nbsp;&lt;/span&gt;&lt;/div&gt;&lt;div style=&quot;color: rgb(0, 0, 0);&quot;&gt;&lt;span style=&quot;color: #000000;&quot;&gt;&amp;nbsp; &lt;/span&gt;&lt;span style=&quot;color: #098658;&quot;&gt;35&lt;/span&gt;&lt;span style=&quot;color: #000000;&quot;&gt;: &amp;nbsp; 8b &lt;/span&gt;&lt;span style=&quot;color: #098658;&quot;&gt;45&lt;/span&gt;&lt;span style=&quot;color: #000000;&quot;&gt; f8 &amp;nbsp; &amp;nbsp; &amp;nbsp; &amp;nbsp; &amp;nbsp; &amp;nbsp; &amp;nbsp; &amp;nbsp;&lt;/span&gt;&lt;/div&gt;&lt;div style=&quot;color: rgb(0, 0, 0);&quot;&gt;&lt;span style=&quot;color: #000000;&quot;&gt;&amp;nbsp; &lt;/span&gt;&lt;span style=&quot;color: #098658;&quot;&gt;38&lt;/span&gt;&lt;span style=&quot;color: #000000;&quot;&gt;: &amp;nbsp; &lt;/span&gt;&lt;span style=&quot;color: #098658;&quot;&gt;01&lt;/span&gt;&lt;span style=&quot;color: #000000;&quot;&gt; &lt;/span&gt;&lt;span style=&quot;color: #0000ff;&quot;&gt;d0&lt;/span&gt;&lt;span style=&quot;color: #000000;&quot;&gt; &amp;nbsp; &amp;nbsp; &amp;nbsp; &amp;nbsp; &amp;nbsp; &amp;nbsp; &amp;nbsp; &amp;nbsp; &amp;nbsp; &lt;/span&gt;&lt;/div&gt;&lt;div style=&quot;color: rgb(0, 0, 0);&quot;&gt;&lt;span style=&quot;color: #000000;&quot;&gt;&amp;nbsp; 3a: &amp;nbsp; 5d &amp;nbsp; &amp;nbsp; &amp;nbsp; &amp;nbsp; &amp;nbsp; &amp;nbsp; &amp;nbsp; &amp;nbsp; &amp;nbsp; &amp;nbsp; &amp;nbsp;&lt;/span&gt;&lt;/div&gt;&lt;div style=&quot;color: rgb(0, 0, 0);&quot;&gt;&lt;span style=&quot;color: #000000;&quot;&gt;&amp;nbsp; 3b: &amp;nbsp; &lt;/span&gt;&lt;span style=&quot;color: #0000ff;&quot;&gt;c3&lt;/span&gt;&lt;span style=&quot;color: #000000;&quot;&gt; &amp;nbsp; &amp;nbsp; &amp;nbsp; &amp;nbsp; &amp;nbsp; &amp;nbsp; &amp;nbsp; &amp;nbsp; &amp;nbsp; &amp;nbsp; &amp;nbsp;&lt;/span&gt;&lt;/div&gt;&lt;/div&gt;" style="text;whiteSpace=wrap;html=1;fontSize=18;fontColor=#000000;strokeColor=default;fillColor=default;" vertex="1" parent="1">
                    <mxGeometry x="-1200" width="360" height="590" as="geometry"/>
                </mxCell>
            </root>
        </mxGraphModel>
    </diagram>
    <diagram id="KA7etEURkoMYoH4g5haz" name="compiler-linker-loader">
        <mxGraphModel dx="1548" dy="1168" grid="1" gridSize="10" guides="1" tooltips="1" connect="1" arrows="1" fold="1" page="0" pageScale="1" pageWidth="850" pageHeight="1100" math="0" shadow="0">
            <root>
                <mxCell id="0"/>
                <mxCell id="1" parent="0"/>
                <mxCell id="nM3go4CC4aJt4iRn3Py6-1" value="main.c" style="rounded=0;whiteSpace=wrap;html=1;strokeColor=#000000;fontSize=18;fontColor=#000000;fillColor=default;gradientColor=none;" vertex="1" parent="1">
                    <mxGeometry x="-80" y="80" width="80" height="40" as="geometry"/>
                </mxCell>
                <mxCell id="nM3go4CC4aJt4iRn3Py6-2" value="hello.c" style="rounded=0;whiteSpace=wrap;html=1;strokeColor=#000000;fontSize=18;fontColor=#000000;fillColor=default;gradientColor=none;" vertex="1" parent="1">
                    <mxGeometry x="-80" y="400" width="80" height="40" as="geometry"/>
                </mxCell>
                <mxCell id="nM3go4CC4aJt4iRn3Py6-4" value="main.o" style="rounded=0;whiteSpace=wrap;html=1;strokeColor=none;fontSize=18;fontColor=#000000;fillColor=default;gradientColor=none;" vertex="1" parent="1">
                    <mxGeometry x="80" y="-10" width="80" height="40" as="geometry"/>
                </mxCell>
                <mxCell id="nM3go4CC4aJt4iRn3Py6-5" value="hello.o" style="rounded=0;whiteSpace=wrap;html=1;strokeColor=none;fontSize=18;fontColor=#000000;fillColor=default;gradientColor=none;" vertex="1" parent="1">
                    <mxGeometry x="80" y="310" width="80" height="40" as="geometry"/>
                </mxCell>
                <mxCell id="nM3go4CC4aJt4iRn3Py6-6" value="main.out" style="rounded=0;whiteSpace=wrap;html=1;strokeColor=none;fontSize=18;fontColor=#000000;fillColor=default;gradientColor=none;" vertex="1" parent="1">
                    <mxGeometry x="280" y="65" width="80" height="40" as="geometry"/>
                </mxCell>
                <mxCell id="nM3go4CC4aJt4iRn3Py6-8" value=".text" style="rounded=0;whiteSpace=wrap;html=1;strokeColor=#82b366;fontSize=18;fillColor=#d5e8d4;" vertex="1" parent="1">
                    <mxGeometry x="480" y="480" width="80" height="80" as="geometry"/>
                </mxCell>
                <mxCell id="nM3go4CC4aJt4iRn3Py6-10" value="" style="rounded=0;whiteSpace=wrap;html=1;strokeColor=#000000;fontSize=18;fontColor=#000000;fillColor=default;gradientColor=none;" vertex="1" parent="1">
                    <mxGeometry x="480" y="120" width="80" height="80" as="geometry"/>
                </mxCell>
                <mxCell id="nM3go4CC4aJt4iRn3Py6-11" value="" style="rounded=0;whiteSpace=wrap;html=1;strokeColor=#000000;fontSize=18;fontColor=#000000;fillColor=default;gradientColor=none;" vertex="1" parent="1">
                    <mxGeometry x="480" y="50" width="80" height="70" as="geometry"/>
                </mxCell>
                <mxCell id="nM3go4CC4aJt4iRn3Py6-13" value="" style="endArrow=classic;html=1;fontSize=18;fontColor=#000000;exitX=1;exitY=0.5;exitDx=0;exitDy=0;entryX=1;entryY=1;entryDx=0;entryDy=0;" edge="1" parent="1" source="nM3go4CC4aJt4iRn3Py6-14" target="nM3go4CC4aJt4iRn3Py6-10">
                    <mxGeometry width="50" height="50" relative="1" as="geometry">
                        <mxPoint x="450.48" y="138.07999999999993" as="sourcePoint"/>
                        <mxPoint x="570" y="140" as="targetPoint"/>
                    </mxGeometry>
                </mxCell>
                <mxCell id="nM3go4CC4aJt4iRn3Py6-14" value="sp" style="rounded=0;whiteSpace=wrap;html=1;strokeColor=none;fontSize=18;fontColor=#000000;fillColor=default;gradientColor=none;" vertex="1" parent="1">
                    <mxGeometry x="640" y="180" width="80" height="40" as="geometry"/>
                </mxCell>
                <mxCell id="nM3go4CC4aJt4iRn3Py6-15" value="fp" style="rounded=0;whiteSpace=wrap;html=1;strokeColor=none;fontSize=18;fontColor=#000000;fillColor=default;gradientColor=none;" vertex="1" parent="1">
                    <mxGeometry x="640" y="100" width="80" height="40" as="geometry"/>
                </mxCell>
                <mxCell id="nM3go4CC4aJt4iRn3Py6-16" value="" style="endArrow=classic;html=1;fontSize=18;fontColor=#000000;exitX=0;exitY=0.5;exitDx=0;exitDy=0;" edge="1" parent="1" source="nM3go4CC4aJt4iRn3Py6-15">
                    <mxGeometry width="50" height="50" relative="1" as="geometry">
                        <mxPoint x="600" y="120" as="sourcePoint"/>
                        <mxPoint x="560" y="119.6" as="targetPoint"/>
                    </mxGeometry>
                </mxCell>
                <mxCell id="nM3go4CC4aJt4iRn3Py6-18" value="" style="edgeStyle=none;html=1;fontSize=18;fontColor=#000000;exitX=0;exitY=0.5;exitDx=0;exitDy=0;" edge="1" parent="1" source="nM3go4CC4aJt4iRn3Py6-17" target="nM3go4CC4aJt4iRn3Py6-8">
                    <mxGeometry relative="1" as="geometry">
                        <mxPoint x="600" y="520" as="sourcePoint"/>
                    </mxGeometry>
                </mxCell>
                <mxCell id="nM3go4CC4aJt4iRn3Py6-17" value="pc" style="rounded=0;whiteSpace=wrap;html=1;strokeColor=none;fontSize=18;fontColor=#000000;fillColor=default;gradientColor=none;" vertex="1" parent="1">
                    <mxGeometry x="640" y="500" width="80" height="40" as="geometry"/>
                </mxCell>
                <mxCell id="nM3go4CC4aJt4iRn3Py6-20" value="compiler" style="rounded=0;whiteSpace=wrap;html=1;strokeColor=#b85450;fontSize=18;fillColor=#f8cecc;" vertex="1" parent="1">
                    <mxGeometry y="-80" width="80" height="40" as="geometry"/>
                </mxCell>
                <mxCell id="nM3go4CC4aJt4iRn3Py6-22" value="linker&lt;br&gt;link sections" style="rounded=0;whiteSpace=wrap;html=1;strokeColor=#b85450;fontSize=18;fillColor=#f8cecc;" vertex="1" parent="1">
                    <mxGeometry x="160" y="-80" width="120" height="40" as="geometry"/>
                </mxCell>
                <mxCell id="nM3go4CC4aJt4iRn3Py6-23" value="loader&lt;br&gt;load segments" style="rounded=0;whiteSpace=wrap;html=1;strokeColor=#b85450;fontSize=18;fillColor=#f8cecc;" vertex="1" parent="1">
                    <mxGeometry x="360" y="-80" width="120" height="40" as="geometry"/>
                </mxCell>
                <mxCell id="nM3go4CC4aJt4iRn3Py6-24" value=".text" style="rounded=0;whiteSpace=wrap;html=1;strokeColor=#82b366;fontSize=18;fillColor=#d5e8d4;" vertex="1" parent="1">
                    <mxGeometry x="80" y="40" width="80" height="40" as="geometry"/>
                </mxCell>
                <mxCell id="nM3go4CC4aJt4iRn3Py6-25" value=".rodata" style="rounded=0;whiteSpace=wrap;html=1;strokeColor=#6c8ebf;fontSize=18;fillColor=#dae8fc;" vertex="1" parent="1">
                    <mxGeometry x="80" y="80" width="80" height="40" as="geometry"/>
                </mxCell>
                <mxCell id="nM3go4CC4aJt4iRn3Py6-26" value=".data" style="rounded=0;whiteSpace=wrap;html=1;strokeColor=#000000;fontSize=18;fontColor=#000000;fillColor=default;gradientColor=none;" vertex="1" parent="1">
                    <mxGeometry x="80" y="120" width="80" height="40" as="geometry"/>
                </mxCell>
                <mxCell id="nM3go4CC4aJt4iRn3Py6-27" value=".bss" style="rounded=0;whiteSpace=wrap;html=1;strokeColor=#000000;fontSize=18;fontColor=#000000;fillColor=default;gradientColor=none;" vertex="1" parent="1">
                    <mxGeometry x="80" y="160" width="80" height="40" as="geometry"/>
                </mxCell>
                <mxCell id="nM3go4CC4aJt4iRn3Py6-28" value="..." style="rounded=0;whiteSpace=wrap;html=1;strokeColor=#000000;fontSize=18;fontColor=#000000;fillColor=default;gradientColor=none;" vertex="1" parent="1">
                    <mxGeometry x="80" y="200" width="80" height="40" as="geometry"/>
                </mxCell>
                <mxCell id="nM3go4CC4aJt4iRn3Py6-30" value=".rodata" style="rounded=0;whiteSpace=wrap;html=1;strokeColor=#6c8ebf;fontSize=18;fillColor=#dae8fc;" vertex="1" parent="1">
                    <mxGeometry x="80" y="400" width="80" height="40" as="geometry"/>
                </mxCell>
                <mxCell id="nM3go4CC4aJt4iRn3Py6-31" value=".data" style="rounded=0;whiteSpace=wrap;html=1;strokeColor=#000000;fontSize=18;fontColor=#000000;fillColor=default;gradientColor=none;" vertex="1" parent="1">
                    <mxGeometry x="80" y="440" width="80" height="40" as="geometry"/>
                </mxCell>
                <mxCell id="nM3go4CC4aJt4iRn3Py6-32" value=".bss" style="rounded=0;whiteSpace=wrap;html=1;strokeColor=#000000;fontSize=18;fontColor=#000000;fillColor=default;gradientColor=none;" vertex="1" parent="1">
                    <mxGeometry x="80" y="480" width="80" height="40" as="geometry"/>
                </mxCell>
                <mxCell id="nM3go4CC4aJt4iRn3Py6-33" value="..." style="rounded=0;whiteSpace=wrap;html=1;strokeColor=#000000;fontSize=18;fontColor=#000000;fillColor=default;gradientColor=none;" vertex="1" parent="1">
                    <mxGeometry x="80" y="520" width="80" height="40" as="geometry"/>
                </mxCell>
                <mxCell id="nM3go4CC4aJt4iRn3Py6-35" value=".rodata" style="rounded=0;whiteSpace=wrap;html=1;strokeColor=#6c8ebf;fontSize=18;fillColor=#dae8fc;" vertex="1" parent="1">
                    <mxGeometry x="280" y="200" width="80" height="80" as="geometry"/>
                </mxCell>
                <mxCell id="nM3go4CC4aJt4iRn3Py6-36" value=".data" style="rounded=0;whiteSpace=wrap;html=1;strokeColor=#000000;fontSize=18;fontColor=#000000;fillColor=default;gradientColor=none;" vertex="1" parent="1">
                    <mxGeometry x="280" y="280" width="80" height="80" as="geometry"/>
                </mxCell>
                <mxCell id="nM3go4CC4aJt4iRn3Py6-37" value=".bss" style="rounded=0;whiteSpace=wrap;html=1;strokeColor=#000000;fontSize=18;fontColor=#000000;fillColor=default;gradientColor=none;" vertex="1" parent="1">
                    <mxGeometry x="280" y="360" width="80" height="80" as="geometry"/>
                </mxCell>
                <mxCell id="nM3go4CC4aJt4iRn3Py6-38" value="..." style="rounded=0;whiteSpace=wrap;html=1;strokeColor=#000000;fontSize=18;fontColor=#000000;fillColor=default;gradientColor=none;" vertex="1" parent="1">
                    <mxGeometry x="280" y="440" width="80" height="40" as="geometry"/>
                </mxCell>
                <mxCell id="nM3go4CC4aJt4iRn3Py6-39" value=".text" style="rounded=0;whiteSpace=wrap;html=1;strokeColor=#82b366;fontSize=18;fillColor=#d5e8d4;" vertex="1" parent="1">
                    <mxGeometry x="80" y="360" width="80" height="40" as="geometry"/>
                </mxCell>
                <mxCell id="nM3go4CC4aJt4iRn3Py6-40" value=".text" style="rounded=0;whiteSpace=wrap;html=1;strokeColor=#82b366;fontSize=18;fillColor=#d5e8d4;" vertex="1" parent="1">
                    <mxGeometry x="280" y="120" width="80" height="80" as="geometry"/>
                </mxCell>
                <mxCell id="nM3go4CC4aJt4iRn3Py6-41" value=".rodata" style="rounded=0;whiteSpace=wrap;html=1;strokeColor=#6c8ebf;fontSize=18;fillColor=#dae8fc;" vertex="1" parent="1">
                    <mxGeometry x="480" y="400" width="80" height="80" as="geometry"/>
                </mxCell>
                <mxCell id="Z9GJdVXoW6UWAB_72oni-1" value=".data" style="rounded=0;whiteSpace=wrap;html=1;strokeColor=#000000;fontSize=18;fontColor=#000000;fillColor=default;gradientColor=none;" vertex="1" parent="1">
                    <mxGeometry x="480" y="320" width="80" height="80" as="geometry"/>
                </mxCell>
            </root>
        </mxGraphModel>
    </diagram>
    <diagram id="T_OcygmZViDg-wONWFln" name="simple-dynamic-loader">
        <mxGraphModel dx="1466" dy="713" grid="1" gridSize="10" guides="1" tooltips="1" connect="1" arrows="1" fold="1" page="0" pageScale="1" pageWidth="850" pageHeight="1100" math="0" shadow="0">
            <root>
                <mxCell id="0"/>
                <mxCell id="1" parent="0"/>
                <mxCell id="IYOQuzpBo8O7Hf00qq68-1" value="main.o" style="rounded=0;whiteSpace=wrap;html=1;strokeColor=#000000;fontSize=18;fontColor=#000000;fillColor=default;gradientColor=none;" vertex="1" parent="1">
                    <mxGeometry x="120" y="120" width="80" height="40" as="geometry"/>
                </mxCell>
                <mxCell id="IYOQuzpBo8O7Hf00qq68-2" value="add.o" style="rounded=0;whiteSpace=wrap;html=1;strokeColor=#000000;fontSize=18;fontColor=#000000;fillColor=default;gradientColor=none;" vertex="1" parent="1">
                    <mxGeometry x="-160" y="120" width="80" height="40" as="geometry"/>
                </mxCell>
                <mxCell id="IYOQuzpBo8O7Hf00qq68-3" value="libadd.so" style="rounded=0;whiteSpace=wrap;html=1;strokeColor=#000000;fontSize=18;fontColor=#000000;fillColor=default;gradientColor=none;" vertex="1" parent="1">
                    <mxGeometry x="440" y="120" width="130" height="40" as="geometry"/>
                </mxCell>
                <mxCell id="IYOQuzpBo8O7Hf00qq68-4" value="call (add)%rip&amp;nbsp;" style="rounded=0;whiteSpace=wrap;html=1;strokeColor=#000000;fontSize=18;fontColor=#000000;fillColor=default;gradientColor=none;" vertex="1" parent="1">
                    <mxGeometry x="80" y="240" width="160" height="40" as="geometry"/>
                </mxCell>
                <mxCell id="IYOQuzpBo8O7Hf00qq68-5" value="main.out" style="rounded=0;whiteSpace=wrap;html=1;strokeColor=#000000;fontSize=18;fontColor=#000000;fillColor=default;gradientColor=none;" vertex="1" parent="1">
                    <mxGeometry x="-170" y="400" width="80" height="40" as="geometry"/>
                </mxCell>
                <mxCell id="IYOQuzpBo8O7Hf00qq68-6" value="call (add)%rip&amp;nbsp;&lt;br&gt;&lt;br&gt;add:&lt;br&gt;&amp;nbsp; &amp;nbsp; ......" style="rounded=0;whiteSpace=wrap;html=1;strokeColor=#000000;fontSize=18;fontColor=#000000;fillColor=default;gradientColor=none;align=left;" vertex="1" parent="1">
                    <mxGeometry x="-80" y="400" width="160" height="120" as="geometry"/>
                </mxCell>
                <mxCell id="IYOQuzpBo8O7Hf00qq68-7" value="main:&lt;br&gt;&amp;nbsp; &amp;nbsp; call (add)%rip" style="rounded=0;whiteSpace=wrap;html=1;strokeColor=#000000;fontSize=18;fontColor=#000000;fillColor=default;gradientColor=none;align=left;" vertex="1" parent="1">
                    <mxGeometry x="280" y="400" width="160" height="100" as="geometry"/>
                </mxCell>
                <mxCell id="IYOQuzpBo8O7Hf00qq68-8" value="main" style="rounded=0;whiteSpace=wrap;html=1;strokeColor=#000000;fontSize=18;fontColor=#000000;fillColor=default;gradientColor=none;" vertex="1" parent="1">
                    <mxGeometry x="190" y="400" width="80" height="40" as="geometry"/>
                </mxCell>
                <mxCell id="IYOQuzpBo8O7Hf00qq68-9" value="add:&lt;br&gt;&amp;nbsp; &amp;nbsp; ......" style="rounded=0;whiteSpace=wrap;html=1;strokeColor=#000000;fontSize=18;fontColor=#000000;fillColor=default;gradientColor=none;align=left;" vertex="1" parent="1">
                    <mxGeometry x="280" y="560" width="160" height="70" as="geometry"/>
                </mxCell>
                <mxCell id="IYOQuzpBo8O7Hf00qq68-10" value="add.so" style="rounded=0;whiteSpace=wrap;html=1;strokeColor=#000000;fontSize=18;fontColor=#000000;fillColor=default;gradientColor=none;" vertex="1" parent="1">
                    <mxGeometry x="190" y="560" width="80" height="40" as="geometry"/>
                </mxCell>
                <mxCell id="IYOQuzpBo8O7Hf00qq68-12" value="" style="endArrow=classic;html=1;fontSize=18;fontColor=#000000;exitX=0.5;exitY=1;exitDx=0;exitDy=0;entryX=0.5;entryY=0;entryDx=0;entryDy=0;" edge="1" parent="1" source="IYOQuzpBo8O7Hf00qq68-2" target="IYOQuzpBo8O7Hf00qq68-6">
                    <mxGeometry width="50" height="50" relative="1" as="geometry">
                        <mxPoint x="140" y="380" as="sourcePoint"/>
                        <mxPoint x="190" y="330" as="targetPoint"/>
                        <Array as="points">
                            <mxPoint y="280"/>
                        </Array>
                    </mxGeometry>
                </mxCell>
                <mxCell id="IYOQuzpBo8O7Hf00qq68-13" value="" style="endArrow=classic;html=1;fontSize=18;fontColor=#000000;exitX=0.5;exitY=1;exitDx=0;exitDy=0;entryX=0.5;entryY=0;entryDx=0;entryDy=0;" edge="1" parent="1" source="IYOQuzpBo8O7Hf00qq68-1" target="IYOQuzpBo8O7Hf00qq68-6">
                    <mxGeometry width="50" height="50" relative="1" as="geometry">
                        <mxPoint x="-30" y="169.9999999999999" as="sourcePoint"/>
                        <mxPoint x="10" y="410" as="targetPoint"/>
                        <Array as="points">
                            <mxPoint y="280"/>
                        </Array>
                    </mxGeometry>
                </mxCell>
                <mxCell id="IYOQuzpBo8O7Hf00qq68-14" value="" style="endArrow=classic;html=1;fontSize=18;fontColor=#000000;exitX=0.5;exitY=1;exitDx=0;exitDy=0;entryX=0.5;entryY=0;entryDx=0;entryDy=0;" edge="1" parent="1" source="IYOQuzpBo8O7Hf00qq68-3" target="IYOQuzpBo8O7Hf00qq68-7">
                    <mxGeometry width="50" height="50" relative="1" as="geometry">
                        <mxPoint x="170" y="169.9999999999999" as="sourcePoint"/>
                        <mxPoint x="10" y="410" as="targetPoint"/>
                        <Array as="points">
                            <mxPoint x="360" y="280"/>
                        </Array>
                    </mxGeometry>
                </mxCell>
                <mxCell id="IYOQuzpBo8O7Hf00qq68-15" value="" style="endArrow=classic;html=1;fontSize=18;fontColor=#000000;exitX=0.5;exitY=1;exitDx=0;exitDy=0;entryX=0.5;entryY=0;entryDx=0;entryDy=0;" edge="1" parent="1" source="IYOQuzpBo8O7Hf00qq68-1" target="IYOQuzpBo8O7Hf00qq68-7">
                    <mxGeometry width="50" height="50" relative="1" as="geometry">
                        <mxPoint x="515" y="169.9999999999999" as="sourcePoint"/>
                        <mxPoint x="370" y="410" as="targetPoint"/>
                        <Array as="points">
                            <mxPoint x="360" y="280"/>
                        </Array>
                    </mxGeometry>
                </mxCell>
                <mxCell id="IYOQuzpBo8O7Hf00qq68-16" value="loader 加载 libadd.so 到内存中后&lt;br&gt;再修改 main 中 .text 段 call 指令的后半截" style="text;html=1;align=center;verticalAlign=middle;resizable=0;points=[];autosize=1;strokeColor=none;fillColor=none;fontSize=18;fontColor=#000000;" vertex="1" parent="1">
                    <mxGeometry x="460" y="470" width="350" height="60" as="geometry"/>
                </mxCell>
            </root>
        </mxGraphModel>
    </diagram>
</mxfile>